<svg width="24" height="24" viewBox="0 0 24 24" fill="none" xmlns="http://www.w3.org/2000/svg">
<path d="M7.2 2V3V2ZM20 5.2H19H20ZM20 18.8H21H20ZM19.782 20.908L20.673 21.362L19.782 20.908ZM16.8 22V21V22ZM18.908 21.782L19.362 22.673L19.362 22.673L18.908 21.782ZM18.908 2.21799L19.362 1.32698L18.908 2.21799ZM19.782 3.09202L18.891 3.54601V3.54601L19.782 3.09202ZM5.09202 2.21799L5.54601 3.10899V3.10899L5.09202 2.21799ZM4 5.2H3H4ZM4.21799 3.09202L5.10899 3.54601L5.10899 3.54601L4.21799 3.09202ZM3 16C3 16.5523 3.44772 17 4 17C4.55228 17 5 16.5523 5 16H3ZM10 21C9.44771 21 9 21.4477 9 22C9 22.5523 9.44771 23 10 23V21ZM4.17071 16.1707L4.87782 15.4636H4.87782L4.17071 16.1707ZM9.82929 21.8293L9.12218 22.5364L9.82929 21.8293ZM4.24142 16L4.24142 17H4.24142V16ZM9 16V15V16ZM10 17H9H10ZM10 21.7586H11H10ZM16 13C16.5523 13 17 12.5523 17 12C17 11.4477 16.5523 11 16 11V13ZM8 11C7.44772 11 7 11.4477 7 12C7 12.5523 7.44772 13 8 13V11ZM16 17C16.5523 17 17 16.5523 17 16C17 15.4477 16.5523 15 16 15V17ZM14 15C13.4477 15 13 15.4477 13 16C13 16.5523 13.4477 17 14 17V15ZM16 9C16.5523 9 17 8.55228 17 8C17 7.44771 16.5523 7 16 7V9ZM8 7C7.44772 7 7 7.44771 7 8C7 8.55228 7.44772 9 8 9V7ZM7.2 3L16.8 3V1L7.2 1V3ZM19 5.2V18.8H21V5.2H19ZM19 18.8C19 19.3766 18.9992 19.7488 18.9761 20.0322C18.9539 20.3038 18.9162 20.4045 18.891 20.454L20.673 21.362C20.8658 20.9836 20.9371 20.5904 20.9694 20.195C21.0008 19.8114 21 19.3436 21 18.8H19ZM16.8 23C17.3435 23 17.8114 23.0008 18.195 22.9694C18.5904 22.9371 18.9836 22.8658 19.362 22.673L18.454 20.891C18.4045 20.9162 18.3038 20.9539 18.0322 20.9761C17.7488 20.9992 17.3766 21 16.8 21V23ZM18.891 20.454C18.7951 20.6422 18.6422 20.7951 18.454 20.891L19.362 22.673C19.9265 22.3854 20.3854 21.9265 20.673 21.362L18.891 20.454ZM16.8 3C17.3766 3 17.7488 3.00078 18.0322 3.02393C18.3038 3.04612 18.4045 3.0838 18.454 3.10899L19.362 1.32698C18.9836 1.13419 18.5904 1.06287 18.195 1.03057C17.8114 0.999223 17.3436 1 16.8 1V3ZM21 5.2C21 4.65645 21.0008 4.18864 20.9694 3.80497C20.9371 3.40963 20.8658 3.01641 20.673 2.63803L18.891 3.54601C18.9162 3.59545 18.9539 3.69617 18.9761 3.96784C18.9992 4.25117 19 4.62345 19 5.2H21ZM18.454 3.10899C18.6422 3.20487 18.7951 3.35785 18.891 3.54601L20.673 2.63803C20.3854 2.07354 19.9265 1.6146 19.362 1.32698L18.454 3.10899ZM7.2 1C6.65645 1 6.18864 0.999222 5.80497 1.03057C5.40963 1.06287 5.01641 1.13419 4.63803 1.32698L5.54601 3.10899C5.59545 3.0838 5.69617 3.04612 5.96784 3.02393C6.25117 3.00078 6.62345 3 7.2 3V1ZM5 5.2C5 4.62345 5.00078 4.25117 5.02393 3.96784C5.04612 3.69617 5.0838 3.59545 5.10899 3.54601L3.32698 2.63803C3.13419 3.01641 3.06287 3.40963 3.03057 3.80497C2.99922 4.18864 3 4.65645 3 5.2H5ZM4.63803 1.32698C4.07354 1.6146 3.6146 2.07354 3.32698 2.63803L5.10899 3.54601C5.20487 3.35785 5.35785 3.20487 5.54601 3.10899L4.63803 1.32698ZM5 16L5 5.2H3L3 16H5ZM16.8 21H10V23H16.8V21ZM3.4636 16.8778L9.12218 22.5364L10.5364 21.1222L4.87782 15.4636L3.4636 16.8778ZM4.24142 17H9V15H4.24142V17ZM9 17V21.7586H11V17H9ZM9 17H9H11C11 15.8954 10.1046 15 9 15V17ZM9.12218 22.5364C9.81515 23.2294 11 22.7386 11 21.7586H9C9 20.9568 9.96942 20.5552 10.5364 21.1222L9.12218 22.5364ZM4.87782 15.4636C5.44479 16.0306 5.04324 17 4.24142 17L4.24142 15C3.26143 15 2.77064 16.1849 3.46361 16.8778L4.87782 15.4636ZM16 11H8V13H16V11ZM16 15H14V17H16V15ZM16 7H8V9H16V7Z" fill="black"/>
</svg>
