<svg width="24" height="24" viewBox="0 0 24 24" fill="none" xmlns="http://www.w3.org/2000/svg">
<path d="M8 13C7.44772 13 7 13.4477 7 14C7 14.5523 7.44772 15 8 15V13ZM10 15C10.5523 15 11 14.5523 11 14C11 13.4477 10.5523 13 10 13V15ZM8 9C7.44772 9 7 9.44772 7 10C7 10.5523 7.44772 11 8 11V9ZM14 11C14.5523 11 15 10.5523 15 10C15 9.44772 14.5523 9 14 9V11ZM8 5C7.44772 5 7 5.44772 7 6C7 6.55228 7.44772 7 8 7V5ZM14 7C14.5523 7 15 6.55228 15 6C15 5.44772 14.5523 5 14 5V7ZM17 11.5C17 12.0523 17.4477 12.5 18 12.5C18.5523 12.5 19 12.0523 19 11.5H17ZM10 21C10.5523 21 11 20.5523 11 20C11 19.4477 10.5523 19 10 19V21ZM5.07805 19.7748L5.53903 18.8874H5.53902L5.07805 19.7748ZM4.22517 18.9219L3.33776 19.3829L3.33776 19.3829L4.22517 18.9219ZM16.9219 2.22517L16.461 3.11259L16.461 3.11259L16.9219 2.22517ZM17.7748 3.07805L16.8874 3.53902V3.53903L17.7748 3.07805ZM5.07805 2.22517L4.61708 1.33776L5.07805 2.22517ZM4.22517 3.07805L3.33776 2.61708L4.22517 3.07805ZM20.7071 16.7071C21.0976 16.3166 21.0976 15.6834 20.7071 15.2929C20.3166 14.9024 19.6834 14.9024 19.2929 15.2929L20.7071 16.7071ZM15.6464 19.6464L14.9393 20.3536L15.6464 19.6464ZM14.7071 17.2929C14.3166 16.9024 13.6834 16.9024 13.2929 17.2929C12.9024 17.6834 12.9024 18.3166 13.2929 18.7071L14.7071 17.2929ZM8 15H10V13H8V15ZM8 11H14V9H8V11ZM8 7H14V5H8V7ZM7.22 3H14.78V1H7.22V3ZM17 5.22V11.5H19V5.22H17ZM10 19H7.22V21H10V19ZM5 16.78V5.22H3V16.78H5ZM7.22 19C6.63372 19 6.25517 18.9992 5.96722 18.9753C5.69125 18.9524 5.58924 18.9135 5.53903 18.8874L4.61708 20.6622C5.00034 20.8613 5.39981 20.935 5.8017 20.9684C6.19162 21.0008 6.66729 21 7.22 21V19ZM3 16.78C3 17.3327 2.9992 17.8084 3.03158 18.1983C3.06495 18.6002 3.13867 18.9997 3.33776 19.3829L5.11259 18.461C5.0865 18.4108 5.04763 18.3088 5.02472 18.0328C5.0008 17.7448 5 17.3663 5 16.78H3ZM5.53902 18.8874C5.35638 18.7925 5.20746 18.6436 5.11259 18.461L3.33776 19.3829C3.62239 19.9309 4.06915 20.3776 4.61708 20.6622L5.53902 18.8874ZM14.78 3C15.3663 3 15.7448 3.0008 16.0328 3.02472C16.3088 3.04763 16.4108 3.0865 16.461 3.11259L17.3829 1.33776C16.9997 1.13867 16.6002 1.06495 16.1983 1.03158C15.8084 0.999196 15.3327 1 14.78 1V3ZM19 5.22C19 4.66729 19.0008 4.19162 18.9684 3.8017C18.935 3.39982 18.8613 3.00034 18.6622 2.61708L16.8874 3.53903C16.9135 3.58924 16.9524 3.69125 16.9753 3.96722C16.9992 4.25517 17 4.63372 17 5.22H19ZM16.461 3.11259C16.6436 3.20746 16.7925 3.35638 16.8874 3.53902L18.6622 2.61708C18.3776 2.06915 17.9309 1.62239 17.3829 1.33776L16.461 3.11259ZM7.22 1C6.66729 1 6.19162 0.999196 5.8017 1.03158C5.39981 1.06495 5.00034 1.13867 4.61708 1.33776L5.53903 3.11259C5.58924 3.0865 5.69125 3.04763 5.96722 3.02472C6.25517 3.0008 6.63372 3 7.22 3V1ZM5 5.22C5 4.63372 5.0008 4.25517 5.02472 3.96722C5.04763 3.69125 5.0865 3.58924 5.11259 3.53903L3.33776 2.61708C3.13867 3.00034 3.06495 3.39982 3.03158 3.8017C2.9992 4.19162 3 4.66729 3 5.22H5ZM4.61708 1.33776C4.06915 1.62239 3.62239 2.06915 3.33776 2.61708L5.11259 3.53903C5.20746 3.35638 5.35638 3.20746 5.53903 3.11259L4.61708 1.33776ZM17.0607 20.3536L20.7071 16.7071L19.2929 15.2929L15.6464 18.9393L17.0607 20.3536ZM16.3536 18.9393L14.7071 17.2929L13.2929 18.7071L14.9393 20.3536L16.3536 18.9393ZM15.6464 18.9393C15.8417 18.7441 16.1583 18.7441 16.3536 18.9393L14.9393 20.3536C15.5251 20.9393 16.4749 20.9393 17.0607 20.3536L15.6464 18.9393Z" fill="black"/>
</svg>
