<svg width="44" height="20" viewBox="0 0 44 20" fill="none" xmlns="http://www.w3.org/2000/svg">
<path d="M21.6248 5.62494H22.3748M21.6248 6.37494H22.3748M14.6248 5.62494H15.3748M14.6248 6.37494H15.3748M28.6248 5.62494H29.3748M28.6248 6.37494H29.3748M23 6C23 6.55228 22.5523 7 22 7C21.4477 7 21 6.55228 21 6C21 5.44772 21.4477 5 22 5C22.5523 5 23 5.44772 23 6ZM16 6C16 6.55228 15.5523 7 15 7C14.4477 7 14 6.55228 14 6C14 5.44772 14.4477 5 15 5C15.5523 5 16 5.44772 16 6ZM30 6C30 6.55228 29.5523 7 29 7C28.4477 7 28 6.55228 28 6C28 5.44772 28.4477 5 29 5C29.5523 5 30 5.44772 30 6Z" stroke="#B3B7C3" stroke-width="2" stroke-linecap="round"/>
<path d="M21.6248 11.6249H22.3748M21.6248 12.3749H22.3748M14.6248 11.6249H15.3748M14.6248 12.3749H15.3748M28.6248 11.6249H29.3748M28.6248 12.3749H29.3748M23 12C23 12.5523 22.5523 13 22 13C21.4477 13 21 12.5523 21 12C21 11.4477 21.4477 11 22 11C22.5523 11 23 11.4477 23 12ZM16 12C16 12.5523 15.5523 13 15 13C14.4477 13 14 12.5523 14 12C14 11.4477 14.4477 11 15 11C15.5523 11 16 11.4477 16 12ZM30 12C30 12.5523 29.5523 13 29 13C28.4477 13 28 12.5523 28 12C28 11.4477 28.4477 11 29 11C29.5523 11 30 11.4477 30 12Z" stroke="#B3B7C3" stroke-width="2" stroke-linecap="round"/>
</svg>
