<svg width="24" height="25" viewBox="0 0 24 25" fill="none" xmlns="http://www.w3.org/2000/svg">
<g clip-path="url(#clip0_955_1727)">
<path d="M6 19.25C7.72589 19.25 9.125 17.8509 9.125 16.125C9.125 14.3991 7.72589 13 6 13C4.27411 13 2.875 14.3991 2.875 16.125C2.875 17.8509 4.27411 19.25 6 19.25ZM6 19.25C3.23858 19.25 1 20.9289 1 23M6 19.25C8.76142 19.25 11 20.9289 11 23" stroke="#374659" stroke-width="1.5" stroke-linecap="round"/>
</g>
<g clip-path="url(#clip1_955_1727)">
<path d="M18 19.25C19.7259 19.25 21.125 17.8509 21.125 16.125C21.125 14.3991 19.7259 13 18 13C16.2741 13 14.875 14.3991 14.875 16.125C14.875 17.8509 16.2741 19.25 18 19.25ZM18 19.25C15.2386 19.25 13 20.9289 13 23M18 19.25C20.7614 19.25 23 20.9289 23 23" stroke="#374659" stroke-width="1.5" stroke-linecap="round"/>
</g>
<path d="M12 7.52174C13.7259 7.52174 15.125 6.0618 15.125 4.26087C15.125 2.45994 13.7259 1 12 1C10.2741 1 8.875 2.45994 8.875 4.26087C8.875 6.0618 10.2741 7.52174 12 7.52174ZM12 7.52174C9.23858 7.52174 7 9.27367 7 11.4348M12 7.52174C14.7614 7.52174 17 9.27367 17 11.4348" stroke="#374659" stroke-width="1.5" stroke-linecap="round"/>
<defs>
<clipPath id="clip0_955_1727">
<rect width="12" height="12" fill="white" transform="translate(0 12)"/>
</clipPath>
<clipPath id="clip1_955_1727">
<rect width="12" height="12" fill="white" transform="translate(12 12)"/>
</clipPath>
</defs>
</svg>
